<mxfile host="app.diagrams.net" modified="2024-04-03T06:30:55.546Z" agent="Mozilla/5.0 (Windows NT 10.0; Win64; x64) AppleWebKit/537.36 (KHTML, like Gecko) Chrome/123.0.0.0 Safari/537.36" etag="kiHrE7dUWZh-aOex9JYc" version="24.2.1" type="device">
  <diagram name="페이지-1" id="aEkr7pqib0jLtGHS6V4k">
    <mxGraphModel dx="5239" dy="761" grid="1" gridSize="10" guides="1" tooltips="1" connect="1" arrows="1" fold="1" page="1" pageScale="1" pageWidth="827" pageHeight="1169" math="0" shadow="0">
      <root>
        <mxCell id="0" />
        <mxCell id="1" parent="0" />
        <mxCell id="WFwcToHxhKapd6b1TXgg-1" value="통합 관리자" style="whiteSpace=wrap;html=1;rounded=1;shadow=1;strokeWidth=1;fontSize=16;align=center;fillColor=#f5f5f5;strokeColor=#666666;" parent="1" vertex="1">
          <mxGeometry x="-734.75" y="2075" width="275" height="40" as="geometry" />
        </mxCell>
        <mxCell id="WFwcToHxhKapd6b1TXgg-2" value="게시판 관리" style="whiteSpace=wrap;html=1;rounded=1;shadow=1;strokeWidth=1;fontSize=16;align=center;fillColor=#f5f5f5;strokeColor=#666666;" parent="1" vertex="1">
          <mxGeometry x="-659.75" y="2162" width="125" height="50" as="geometry" />
        </mxCell>
        <mxCell id="WFwcToHxhKapd6b1TXgg-3" value="" style="endArrow=none;html=1;rounded=0;entryX=0.5;entryY=1;entryDx=0;entryDy=0;exitX=0.5;exitY=0;exitDx=0;exitDy=0;" parent="1" source="WFwcToHxhKapd6b1TXgg-2" target="WFwcToHxhKapd6b1TXgg-1" edge="1">
          <mxGeometry width="50" height="50" relative="1" as="geometry">
            <mxPoint x="-602.75" y="2170" as="sourcePoint" />
            <mxPoint x="-552.75" y="2120" as="targetPoint" />
          </mxGeometry>
        </mxCell>
        <mxCell id="WFwcToHxhKapd6b1TXgg-4" value="회원 관리" style="whiteSpace=wrap;html=1;rounded=1;shadow=1;strokeWidth=1;fontSize=16;align=center;fillColor=#f5f5f5;strokeColor=#666666;" parent="1" vertex="1">
          <mxGeometry x="-659.75" y="2259" width="125" height="50" as="geometry" />
        </mxCell>
        <mxCell id="WFwcToHxhKapd6b1TXgg-5" value="" style="endArrow=none;html=1;rounded=0;entryX=0.5;entryY=1;entryDx=0;entryDy=0;exitX=0.5;exitY=0;exitDx=0;exitDy=0;" parent="1" source="WFwcToHxhKapd6b1TXgg-4" edge="1">
          <mxGeometry width="50" height="50" relative="1" as="geometry">
            <mxPoint x="-602.75" y="2267" as="sourcePoint" />
            <mxPoint x="-596.75" y="2212" as="targetPoint" />
          </mxGeometry>
        </mxCell>
        <mxCell id="WFwcToHxhKapd6b1TXgg-6" value="게시물 관리" style="whiteSpace=wrap;html=1;rounded=1;shadow=1;strokeWidth=1;fontSize=16;align=center;fillColor=#f5f5f5;strokeColor=#666666;" parent="1" vertex="1">
          <mxGeometry x="-659.75" y="2357" width="125" height="50" as="geometry" />
        </mxCell>
        <mxCell id="WFwcToHxhKapd6b1TXgg-7" value="" style="endArrow=none;html=1;rounded=0;entryX=0.5;entryY=1;entryDx=0;entryDy=0;exitX=0.5;exitY=0;exitDx=0;exitDy=0;" parent="1" source="WFwcToHxhKapd6b1TXgg-6" edge="1">
          <mxGeometry width="50" height="50" relative="1" as="geometry">
            <mxPoint x="-602.75" y="2365" as="sourcePoint" />
            <mxPoint x="-596.75" y="2310" as="targetPoint" />
          </mxGeometry>
        </mxCell>
        <mxCell id="WFwcToHxhKapd6b1TXgg-8" value="기기 등록" style="whiteSpace=wrap;html=1;rounded=1;shadow=1;strokeWidth=1;fontSize=16;align=center;fillColor=#f5f5f5;strokeColor=#666666;" parent="1" vertex="1">
          <mxGeometry x="-659.75" y="2455" width="125" height="50" as="geometry" />
        </mxCell>
        <mxCell id="WFwcToHxhKapd6b1TXgg-9" value="" style="endArrow=none;html=1;rounded=0;entryX=0.5;entryY=1;entryDx=0;entryDy=0;exitX=0.5;exitY=0;exitDx=0;exitDy=0;" parent="1" source="WFwcToHxhKapd6b1TXgg-8" edge="1">
          <mxGeometry width="50" height="50" relative="1" as="geometry">
            <mxPoint x="-602.75" y="2463" as="sourcePoint" />
            <mxPoint x="-596.75" y="2408" as="targetPoint" />
          </mxGeometry>
        </mxCell>
        <mxCell id="WFwcToHxhKapd6b1TXgg-10" value="일반 사용자" style="whiteSpace=wrap;html=1;rounded=1;shadow=1;strokeWidth=1;fontSize=16;align=center;fillColor=#f5f5f5;strokeColor=#666666;" parent="1" vertex="1">
          <mxGeometry x="-392.75" y="2075" width="275" height="40" as="geometry" />
        </mxCell>
        <mxCell id="WFwcToHxhKapd6b1TXgg-11" value="게시글 작성" style="whiteSpace=wrap;html=1;rounded=1;shadow=1;strokeWidth=1;fontSize=16;align=center;fillColor=#f5f5f5;strokeColor=#666666;" parent="1" vertex="1">
          <mxGeometry x="-392.75" y="2162" width="125" height="50" as="geometry" />
        </mxCell>
        <mxCell id="WFwcToHxhKapd6b1TXgg-12" value="보유기기 등록&lt;span style=&quot;color: rgba(0, 0, 0, 0); font-family: monospace; font-size: 0px; text-align: start; text-wrap: nowrap;&quot;&gt;%3CmxGraphModel%3E%3Croot%3E%3CmxCell%20id%3D%220%22%2F%3E%3CmxCell%20id%3D%221%22%20parent%3D%220%22%2F%3E%3CmxCell%20id%3D%222%22%20value%3D%22%EB%8C%93%EA%B8%80%20%EC%88%98%EC%A0%95%22%20style%3D%22whiteSpace%3Dwrap%3Bhtml%3D1%3Brounded%3D1%3Bshadow%3D1%3BstrokeWidth%3D1%3BfontSize%3D16%3Balign%3Dcenter%3BfillColor%3D%23f5f5f5%3BstrokeColor%3D%23666666%3B%22%20vertex%3D%221%22%20parent%3D%221%22%3E%3CmxGeometry%20x%3D%22599.75%22%20y%3D%22540%22%20width%3D%22125%22%20height%3D%2250%22%20as%3D%22geometry%22%2F%3E%3C%2FmxCell%3E%3C%2Froot%3E%3C%2FmxGraphModel%3E&lt;/span&gt;" style="whiteSpace=wrap;html=1;rounded=1;shadow=1;strokeWidth=1;fontSize=16;align=center;fillColor=#f5f5f5;strokeColor=#666666;" parent="1" vertex="1">
          <mxGeometry x="-240.75" y="2162" width="125" height="50" as="geometry" />
        </mxCell>
        <mxCell id="WFwcToHxhKapd6b1TXgg-13" value="음성 제어" style="whiteSpace=wrap;html=1;rounded=1;shadow=1;strokeWidth=1;fontSize=16;align=center;fillColor=#f5f5f5;strokeColor=#666666;" parent="1" vertex="1">
          <mxGeometry x="39.75" y="2162" width="125" height="50" as="geometry" />
        </mxCell>
        <mxCell id="WFwcToHxhKapd6b1TXgg-14" value="" style="shape=partialRectangle;whiteSpace=wrap;html=1;bottom=0;right=0;fillColor=none;" parent="1" vertex="1">
          <mxGeometry x="-332.75" y="2142" width="100" height="20" as="geometry" />
        </mxCell>
        <mxCell id="WFwcToHxhKapd6b1TXgg-15" value="" style="shape=partialRectangle;whiteSpace=wrap;html=1;bottom=0;right=0;fillColor=none;flipH=1;" parent="1" vertex="1">
          <mxGeometry x="-232.75" y="2142" width="60" height="20" as="geometry" />
        </mxCell>
        <mxCell id="WFwcToHxhKapd6b1TXgg-16" value="" style="endArrow=none;html=1;rounded=0;entryX=0.5;entryY=1;entryDx=0;entryDy=0;exitX=0.78;exitY=-0.017;exitDx=0;exitDy=0;exitPerimeter=0;" parent="1" source="WFwcToHxhKapd6b1TXgg-14" target="WFwcToHxhKapd6b1TXgg-10" edge="1">
          <mxGeometry width="50" height="50" relative="1" as="geometry">
            <mxPoint x="-342.75" y="2170" as="sourcePoint" />
            <mxPoint x="-292.75" y="2120" as="targetPoint" />
          </mxGeometry>
        </mxCell>
        <mxCell id="WFwcToHxhKapd6b1TXgg-17" value="&lt;font style=&quot;font-size: 25px;&quot;&gt;Application&lt;/font&gt;" style="whiteSpace=wrap;html=1;rounded=1;shadow=1;strokeWidth=1;fontSize=16;align=center;fillColor=#f5f5f5;strokeColor=#666666;" parent="1" vertex="1">
          <mxGeometry x="-974.75" y="1950" width="1440" height="40" as="geometry" />
        </mxCell>
        <mxCell id="WFwcToHxhKapd6b1TXgg-18" value="인공지능" style="whiteSpace=wrap;html=1;rounded=1;shadow=1;strokeWidth=1;fontSize=16;align=center;fillColor=#f5f5f5;strokeColor=#666666;" parent="1" vertex="1">
          <mxGeometry x="-35.25" y="2075" width="275" height="40" as="geometry" />
        </mxCell>
        <mxCell id="WFwcToHxhKapd6b1TXgg-19" value="" style="endArrow=none;html=1;rounded=0;entryX=0.5;entryY=1;entryDx=0;entryDy=0;exitX=0.5;exitY=0;exitDx=0;exitDy=0;" parent="1" source="WFwcToHxhKapd6b1TXgg-13" target="WFwcToHxhKapd6b1TXgg-18" edge="1">
          <mxGeometry width="50" height="50" relative="1" as="geometry">
            <mxPoint x="-577.25" y="2180.5" as="sourcePoint" />
            <mxPoint x="72.25000000000057" y="2123.5" as="targetPoint" />
          </mxGeometry>
        </mxCell>
        <mxCell id="WFwcToHxhKapd6b1TXgg-20" value="" style="endArrow=classic;html=1;rounded=0;entryX=0.5;entryY=0;entryDx=0;entryDy=0;exitX=0.5;exitY=1;exitDx=0;exitDy=0;" parent="1" source="WFwcToHxhKapd6b1TXgg-128" target="WFwcToHxhKapd6b1TXgg-129" edge="1">
          <mxGeometry width="50" height="50" relative="1" as="geometry">
            <mxPoint x="190.5" y="2140" as="sourcePoint" />
            <mxPoint x="190.5" y="2187" as="targetPoint" />
          </mxGeometry>
        </mxCell>
        <mxCell id="WFwcToHxhKapd6b1TXgg-21" value="게시글 수정" style="whiteSpace=wrap;html=1;rounded=1;shadow=1;strokeWidth=1;fontSize=16;align=center;fillColor=#f5f5f5;strokeColor=#666666;" parent="1" vertex="1">
          <mxGeometry x="-392.75" y="2259" width="125" height="50" as="geometry" />
        </mxCell>
        <mxCell id="WFwcToHxhKapd6b1TXgg-22" value="게시글 삭제" style="whiteSpace=wrap;html=1;rounded=1;shadow=1;strokeWidth=1;fontSize=16;align=center;fillColor=#f5f5f5;strokeColor=#666666;" parent="1" vertex="1">
          <mxGeometry x="-392.75" y="2357" width="125" height="50" as="geometry" />
        </mxCell>
        <mxCell id="WFwcToHxhKapd6b1TXgg-23" value="댓글 작성" style="whiteSpace=wrap;html=1;rounded=1;shadow=1;strokeWidth=1;fontSize=16;align=center;fillColor=#f5f5f5;strokeColor=#666666;" parent="1" vertex="1">
          <mxGeometry x="-392.75" y="2455" width="125" height="50" as="geometry" />
        </mxCell>
        <mxCell id="WFwcToHxhKapd6b1TXgg-24" value="댓글 수정" style="whiteSpace=wrap;html=1;rounded=1;shadow=1;strokeWidth=1;fontSize=16;align=center;fillColor=#f5f5f5;strokeColor=#666666;" parent="1" vertex="1">
          <mxGeometry x="-392.75" y="2555" width="125" height="50" as="geometry" />
        </mxCell>
        <mxCell id="WFwcToHxhKapd6b1TXgg-25" value="댓글 삭제" style="whiteSpace=wrap;html=1;rounded=1;shadow=1;strokeWidth=1;fontSize=16;align=center;fillColor=#f5f5f5;strokeColor=#666666;" parent="1" vertex="1">
          <mxGeometry x="-392.75" y="2655" width="125" height="50" as="geometry" />
        </mxCell>
        <mxCell id="WFwcToHxhKapd6b1TXgg-26" value="기기 삭제&lt;span style=&quot;color: rgba(0, 0, 0, 0); font-family: monospace; font-size: 0px; text-align: start; text-wrap: nowrap;&quot;&gt;%3CmxGraphModel%3E%3Croot%3E%3CmxCell%20id%3D%220%22%2F%3E%3CmxCell%20id%3D%221%22%20parent%3D%220%22%2F%3E%3CmxCell%20id%3D%222%22%20value%3D%22%EB%8C%93%EA%B8%80%20%EC%88%98%EC%A0%95%22%20style%3D%22whiteSpace%3Dwrap%3Bhtml%3D1%3Brounded%3D1%3Bshadow%3D1%3BstrokeWidth%3D1%3BfontSize%3D16%3Balign%3Dcenter%3BfillColor%3D%23f5f5f5%3BstrokeColor%3D%23666666%3B%22%20vertex%3D%221%22%20parent%3D%221%22%3E%3CmxGeometry%20x%3D%22599.75%22%20y%3D%22540%22%20width%3D%22125%22%20height%3D%2250%22%20as%3D%22geometry%22%2F%3E%3C%2FmxCell%3E%3C%2Froot%3E%3C%2FmxGraphModel%3E&lt;/span&gt;" style="whiteSpace=wrap;html=1;rounded=1;shadow=1;strokeWidth=1;fontSize=16;align=center;fillColor=#f5f5f5;strokeColor=#666666;" parent="1" vertex="1">
          <mxGeometry x="-240.5" y="2259" width="125" height="50" as="geometry" />
        </mxCell>
        <mxCell id="WFwcToHxhKapd6b1TXgg-27" value="기기 제어&lt;span style=&quot;color: rgba(0, 0, 0, 0); font-family: monospace; font-size: 0px; text-align: start; text-wrap: nowrap;&quot;&gt;%3CmxGraphModel%3E%3Croot%3E%3CmxCell%20id%3D%220%22%2F%3E%3CmxCell%20id%3D%221%22%20parent%3D%220%22%2F%3E%3CmxCell%20id%3D%222%22%20value%3D%22%EB%8C%93%EA%B8%80%20%EC%88%98%EC%A0%95%22%20style%3D%22whiteSpace%3Dwrap%3Bhtml%3D1%3Brounded%3D1%3Bshadow%3D1%3BstrokeWidth%3D1%3BfontSize%3D16%3Balign%3Dcenter%3BfillColor%3D%23f5f5f5%3BstrokeColor%3D%23666666%3B%22%20vertex%3D%221%22%20parent%3D%221%22%3E%3CmxGeometry%20x%3D%22599.75%22%20y%3D%22540%22%20width%3D%22125%22%20height%3D%2250%22%20as%3D%22geometry%22%2F%3E%3C%2FmxCell%3E%3C%2Froot%3E%3C%2FmxGraphModel%&lt;/span&gt;" style="whiteSpace=wrap;html=1;rounded=1;shadow=1;strokeWidth=1;fontSize=16;align=center;fillColor=#f5f5f5;strokeColor=#666666;" parent="1" vertex="1">
          <mxGeometry x="-240.5" y="2357" width="125" height="50" as="geometry" />
        </mxCell>
        <mxCell id="WFwcToHxhKapd6b1TXgg-28" value="" style="edgeStyle=elbowEdgeStyle;elbow=horizontal;endArrow=classic;html=1;curved=0;rounded=0;endSize=8;startSize=8;exitX=0.5;exitY=1;exitDx=0;exitDy=0;entryX=0.25;entryY=1;entryDx=0;entryDy=0;" parent="1" source="WFwcToHxhKapd6b1TXgg-13" target="WFwcToHxhKapd6b1TXgg-129" edge="1">
          <mxGeometry width="50" height="50" relative="1" as="geometry">
            <mxPoint x="65.25" y="2170" as="sourcePoint" />
            <mxPoint x="115.25" y="2220" as="targetPoint" />
            <Array as="points">
              <mxPoint x="715.25" y="2705" />
            </Array>
          </mxGeometry>
        </mxCell>
        <mxCell id="WFwcToHxhKapd6b1TXgg-29" value="" style="edgeStyle=elbowEdgeStyle;elbow=horizontal;endArrow=classic;html=1;curved=0;rounded=0;endSize=8;startSize=8;exitX=1;exitY=0.5;exitDx=0;exitDy=0;entryX=0;entryY=0.5;entryDx=0;entryDy=0;" parent="1" source="WFwcToHxhKapd6b1TXgg-27" target="WFwcToHxhKapd6b1TXgg-13" edge="1">
          <mxGeometry width="50" height="50" relative="1" as="geometry">
            <mxPoint x="-32.5" y="2320" as="sourcePoint" />
            <mxPoint x="17.5" y="2270" as="targetPoint" />
          </mxGeometry>
        </mxCell>
        <mxCell id="WFwcToHxhKapd6b1TXgg-30" value="" style="endArrow=none;html=1;rounded=0;entryX=0.5;entryY=1;entryDx=0;entryDy=0;exitX=0.5;exitY=0;exitDx=0;exitDy=0;" parent="1" source="WFwcToHxhKapd6b1TXgg-21" target="WFwcToHxhKapd6b1TXgg-11" edge="1">
          <mxGeometry width="50" height="50" relative="1" as="geometry">
            <mxPoint x="-587.5" y="2172" as="sourcePoint" />
            <mxPoint x="-587.5" y="2125" as="targetPoint" />
          </mxGeometry>
        </mxCell>
        <mxCell id="WFwcToHxhKapd6b1TXgg-31" value="" style="endArrow=none;html=1;rounded=0;entryX=0.5;entryY=1;entryDx=0;entryDy=0;exitX=0.5;exitY=0;exitDx=0;exitDy=0;" parent="1" source="WFwcToHxhKapd6b1TXgg-22" target="WFwcToHxhKapd6b1TXgg-21" edge="1">
          <mxGeometry width="50" height="50" relative="1" as="geometry">
            <mxPoint x="-320.5" y="2269" as="sourcePoint" />
            <mxPoint x="-320.5" y="2222" as="targetPoint" />
          </mxGeometry>
        </mxCell>
        <mxCell id="WFwcToHxhKapd6b1TXgg-32" value="" style="endArrow=none;html=1;rounded=0;entryX=0.5;entryY=1;entryDx=0;entryDy=0;exitX=0.5;exitY=0;exitDx=0;exitDy=0;" parent="1" source="WFwcToHxhKapd6b1TXgg-23" target="WFwcToHxhKapd6b1TXgg-22" edge="1">
          <mxGeometry width="50" height="50" relative="1" as="geometry">
            <mxPoint x="-310.5" y="2279" as="sourcePoint" />
            <mxPoint x="-310.5" y="2232" as="targetPoint" />
          </mxGeometry>
        </mxCell>
        <mxCell id="WFwcToHxhKapd6b1TXgg-33" value="" style="endArrow=none;html=1;rounded=0;entryX=0.5;entryY=1;entryDx=0;entryDy=0;exitX=0.5;exitY=0;exitDx=0;exitDy=0;" parent="1" source="WFwcToHxhKapd6b1TXgg-24" target="WFwcToHxhKapd6b1TXgg-23" edge="1">
          <mxGeometry width="50" height="50" relative="1" as="geometry">
            <mxPoint x="-300.5" y="2289" as="sourcePoint" />
            <mxPoint x="-300.5" y="2242" as="targetPoint" />
          </mxGeometry>
        </mxCell>
        <mxCell id="WFwcToHxhKapd6b1TXgg-34" value="" style="endArrow=none;html=1;rounded=0;entryX=0.5;entryY=1;entryDx=0;entryDy=0;exitX=0.5;exitY=0;exitDx=0;exitDy=0;" parent="1" source="WFwcToHxhKapd6b1TXgg-25" target="WFwcToHxhKapd6b1TXgg-24" edge="1">
          <mxGeometry width="50" height="50" relative="1" as="geometry">
            <mxPoint x="-290.5" y="2299" as="sourcePoint" />
            <mxPoint x="-290.5" y="2252" as="targetPoint" />
          </mxGeometry>
        </mxCell>
        <mxCell id="WFwcToHxhKapd6b1TXgg-35" value="" style="endArrow=none;html=1;rounded=0;entryX=0.5;entryY=1;entryDx=0;entryDy=0;exitX=0.5;exitY=0;exitDx=0;exitDy=0;" parent="1" source="WFwcToHxhKapd6b1TXgg-26" target="WFwcToHxhKapd6b1TXgg-12" edge="1">
          <mxGeometry width="50" height="50" relative="1" as="geometry">
            <mxPoint x="-280.5" y="2309" as="sourcePoint" />
            <mxPoint x="-280.5" y="2262" as="targetPoint" />
          </mxGeometry>
        </mxCell>
        <mxCell id="WFwcToHxhKapd6b1TXgg-36" value="" style="endArrow=none;html=1;rounded=0;entryX=0.5;entryY=1;entryDx=0;entryDy=0;exitX=0.5;exitY=0;exitDx=0;exitDy=0;" parent="1" source="WFwcToHxhKapd6b1TXgg-27" target="WFwcToHxhKapd6b1TXgg-26" edge="1">
          <mxGeometry width="50" height="50" relative="1" as="geometry">
            <mxPoint x="-270.5" y="2319" as="sourcePoint" />
            <mxPoint x="-270.5" y="2272" as="targetPoint" />
          </mxGeometry>
        </mxCell>
        <mxCell id="WFwcToHxhKapd6b1TXgg-37" value="&lt;b&gt;IoT 기기&lt;/b&gt;" style="whiteSpace=wrap;html=1;rounded=1;shadow=1;strokeWidth=1;fontSize=16;align=center;fillColor=#f5f5f5;strokeColor=#666666;" parent="1" vertex="1">
          <mxGeometry x="-324.75" y="2780" width="180" height="40" as="geometry" />
        </mxCell>
        <mxCell id="WFwcToHxhKapd6b1TXgg-38" value="세탁기" style="whiteSpace=wrap;html=1;rounded=1;shadow=1;strokeWidth=1;fontSize=16;align=center;fillColor=#f5f5f5;strokeColor=#666666;" parent="1" vertex="1">
          <mxGeometry x="-689.75" y="2865" width="275" height="40" as="geometry" />
        </mxCell>
        <mxCell id="WFwcToHxhKapd6b1TXgg-39" value="에어컨" style="whiteSpace=wrap;html=1;rounded=1;shadow=1;strokeWidth=1;fontSize=16;align=center;fillColor=#f5f5f5;strokeColor=#666666;" parent="1" vertex="1">
          <mxGeometry x="-374.75" y="2865" width="275" height="40" as="geometry" />
        </mxCell>
        <mxCell id="WFwcToHxhKapd6b1TXgg-40" value="TV" style="whiteSpace=wrap;html=1;rounded=1;shadow=1;strokeWidth=1;fontSize=16;align=center;fillColor=#f5f5f5;strokeColor=#666666;" parent="1" vertex="1">
          <mxGeometry x="-1011.75" y="2865" width="275" height="40" as="geometry" />
        </mxCell>
        <mxCell id="WFwcToHxhKapd6b1TXgg-41" value="건조기" style="whiteSpace=wrap;html=1;rounded=1;shadow=1;strokeWidth=1;fontSize=16;align=center;fillColor=#f5f5f5;strokeColor=#666666;" parent="1" vertex="1">
          <mxGeometry x="-54.75" y="2865" width="275" height="40" as="geometry" />
        </mxCell>
        <mxCell id="WFwcToHxhKapd6b1TXgg-42" value="조명" style="whiteSpace=wrap;html=1;rounded=1;shadow=1;strokeWidth=1;fontSize=16;align=center;fillColor=#f5f5f5;strokeColor=#666666;" parent="1" vertex="1">
          <mxGeometry x="265.25" y="2865" width="275" height="40" as="geometry" />
        </mxCell>
        <mxCell id="WFwcToHxhKapd6b1TXgg-43" value="시간 설정 관리" style="whiteSpace=wrap;html=1;rounded=1;shadow=1;strokeWidth=1;fontSize=16;align=center;fillColor=#f5f5f5;strokeColor=#666666;" parent="1" vertex="1">
          <mxGeometry x="-614.75" y="2950" width="125" height="45" as="geometry" />
        </mxCell>
        <mxCell id="WFwcToHxhKapd6b1TXgg-44" value="모드 변경 관리" style="whiteSpace=wrap;html=1;rounded=1;shadow=1;strokeWidth=1;fontSize=16;align=center;fillColor=#f5f5f5;strokeColor=#666666;" parent="1" vertex="1">
          <mxGeometry x="-614.75" y="3040" width="125" height="50" as="geometry" />
        </mxCell>
        <mxCell id="WFwcToHxhKapd6b1TXgg-45" value="On/Off 관리" style="whiteSpace=wrap;html=1;rounded=1;shadow=1;strokeWidth=1;fontSize=16;align=center;fillColor=#f5f5f5;strokeColor=#666666;" parent="1" vertex="1">
          <mxGeometry x="-299.75" y="2950" width="125" height="45" as="geometry" />
        </mxCell>
        <mxCell id="WFwcToHxhKapd6b1TXgg-46" value="온도 조절 관리" style="whiteSpace=wrap;html=1;rounded=1;shadow=1;strokeWidth=1;fontSize=16;align=center;fillColor=#f5f5f5;strokeColor=#666666;" parent="1" vertex="1">
          <mxGeometry x="-299.75" y="3040" width="125" height="50" as="geometry" />
        </mxCell>
        <mxCell id="WFwcToHxhKapd6b1TXgg-47" value="메뉴 관리" style="whiteSpace=wrap;html=1;rounded=1;shadow=1;strokeWidth=1;fontSize=16;align=center;fillColor=#f5f5f5;strokeColor=#666666;" parent="1" vertex="1">
          <mxGeometry x="-936.75" y="3040" width="125" height="50" as="geometry" />
        </mxCell>
        <mxCell id="WFwcToHxhKapd6b1TXgg-48" value="On/Off 관리" style="whiteSpace=wrap;html=1;rounded=1;shadow=1;strokeWidth=1;fontSize=16;align=center;fillColor=#f5f5f5;strokeColor=#666666;" parent="1" vertex="1">
          <mxGeometry x="-936.75" y="2950" width="125" height="45" as="geometry" />
        </mxCell>
        <mxCell id="WFwcToHxhKapd6b1TXgg-49" value="모드 변경" style="whiteSpace=wrap;html=1;rounded=1;shadow=1;strokeWidth=1;fontSize=16;align=center;fillColor=#f5f5f5;strokeColor=#666666;" parent="1" vertex="1">
          <mxGeometry x="20.25" y="2950" width="125" height="45" as="geometry" />
        </mxCell>
        <mxCell id="WFwcToHxhKapd6b1TXgg-50" value="시간 설정 관리" style="whiteSpace=wrap;html=1;rounded=1;shadow=1;strokeWidth=1;fontSize=16;align=center;fillColor=#f5f5f5;strokeColor=#666666;" parent="1" vertex="1">
          <mxGeometry x="20.25" y="3040" width="125" height="50" as="geometry" />
        </mxCell>
        <mxCell id="WFwcToHxhKapd6b1TXgg-51" value="On/Off 관리" style="whiteSpace=wrap;html=1;rounded=1;shadow=1;strokeWidth=1;fontSize=16;align=center;fillColor=#f5f5f5;strokeColor=#666666;" parent="1" vertex="1">
          <mxGeometry x="340.25" y="2950" width="125" height="45" as="geometry" />
        </mxCell>
        <mxCell id="WFwcToHxhKapd6b1TXgg-52" value="조명 밝기 관리" style="whiteSpace=wrap;html=1;rounded=1;shadow=1;strokeWidth=1;fontSize=16;align=center;fillColor=#f5f5f5;strokeColor=#666666;" parent="1" vertex="1">
          <mxGeometry x="340.25" y="3040" width="125" height="50" as="geometry" />
        </mxCell>
        <mxCell id="WFwcToHxhKapd6b1TXgg-53" value="모드 변경" style="whiteSpace=wrap;html=1;rounded=1;shadow=1;strokeWidth=1;fontSize=16;align=center;fillColor=#f5f5f5;strokeColor=#666666;" parent="1" vertex="1">
          <mxGeometry x="-299.75" y="3140" width="125" height="50" as="geometry" />
        </mxCell>
        <mxCell id="WFwcToHxhKapd6b1TXgg-54" value="&lt;span&gt;바람 세기 관리&lt;/span&gt;" style="whiteSpace=wrap;html=1;rounded=1;shadow=1;strokeWidth=1;fontSize=16;align=center;fillColor=#f5f5f5;strokeColor=#666666;" parent="1" vertex="1">
          <mxGeometry x="-299.75" y="3240" width="125" height="50" as="geometry" />
        </mxCell>
        <mxCell id="WFwcToHxhKapd6b1TXgg-55" value="조이스틱 기능" style="whiteSpace=wrap;html=1;rounded=1;shadow=1;strokeWidth=1;fontSize=16;align=center;fillColor=#f5f5f5;strokeColor=#666666;" parent="1" vertex="1">
          <mxGeometry x="-936.75" y="3240" width="125" height="50" as="geometry" />
        </mxCell>
        <mxCell id="WFwcToHxhKapd6b1TXgg-56" value="채널 변경 관리" style="whiteSpace=wrap;html=1;rounded=1;shadow=1;strokeWidth=1;fontSize=16;align=center;fillColor=#f5f5f5;strokeColor=#666666;" parent="1" vertex="1">
          <mxGeometry x="-936.75" y="3140" width="125" height="50" as="geometry" />
        </mxCell>
        <mxCell id="WFwcToHxhKapd6b1TXgg-57" style="edgeStyle=orthogonalEdgeStyle;html=1;startSize=6;endFill=0;endSize=6;strokeWidth=1;fontSize=16;rounded=0;endArrow=none;" parent="1" source="WFwcToHxhKapd6b1TXgg-37" target="WFwcToHxhKapd6b1TXgg-38" edge="1">
          <mxGeometry relative="1" as="geometry">
            <Array as="points">
              <mxPoint x="-235.75" y="2835" />
              <mxPoint x="-551.75" y="2835" />
            </Array>
          </mxGeometry>
        </mxCell>
        <mxCell id="WFwcToHxhKapd6b1TXgg-58" style="edgeStyle=elbowEdgeStyle;html=1;startSize=6;endFill=0;endSize=6;strokeWidth=1;fontSize=16;rounded=0;endArrow=none;" parent="1" source="WFwcToHxhKapd6b1TXgg-37" target="WFwcToHxhKapd6b1TXgg-39" edge="1">
          <mxGeometry relative="1" as="geometry">
            <Array as="points">
              <mxPoint x="-236.75" y="2840" />
            </Array>
          </mxGeometry>
        </mxCell>
        <mxCell id="WFwcToHxhKapd6b1TXgg-59" style="edgeStyle=orthogonalEdgeStyle;html=1;startSize=6;endFill=0;endSize=6;strokeWidth=1;fontSize=16;rounded=0;endArrow=none;exitX=0.5;exitY=1;" parent="1" source="WFwcToHxhKapd6b1TXgg-37" target="WFwcToHxhKapd6b1TXgg-40" edge="1">
          <mxGeometry relative="1" as="geometry">
            <Array as="points">
              <mxPoint x="-236.75" y="2835" />
              <mxPoint x="-873.75" y="2835" />
            </Array>
          </mxGeometry>
        </mxCell>
        <mxCell id="WFwcToHxhKapd6b1TXgg-60" style="edgeStyle=orthogonalEdgeStyle;html=1;startSize=6;endFill=0;endSize=6;strokeWidth=1;fontSize=16;rounded=0;endArrow=none;" parent="1" source="WFwcToHxhKapd6b1TXgg-37" target="WFwcToHxhKapd6b1TXgg-41" edge="1">
          <mxGeometry relative="1" as="geometry">
            <Array as="points">
              <mxPoint x="-236.75" y="2835" />
              <mxPoint x="83.25" y="2835" />
            </Array>
          </mxGeometry>
        </mxCell>
        <mxCell id="WFwcToHxhKapd6b1TXgg-61" style="edgeStyle=orthogonalEdgeStyle;html=1;startSize=6;endFill=0;endSize=6;strokeWidth=1;fontSize=16;rounded=0;endArrow=none;" parent="1" source="WFwcToHxhKapd6b1TXgg-37" target="WFwcToHxhKapd6b1TXgg-42" edge="1">
          <mxGeometry relative="1" as="geometry">
            <Array as="points">
              <mxPoint x="-236.75" y="2835" />
              <mxPoint x="403.25" y="2835" />
            </Array>
          </mxGeometry>
        </mxCell>
        <mxCell id="WFwcToHxhKapd6b1TXgg-62" value="메뉴 검색" style="whiteSpace=wrap;html=1;rounded=1;shadow=1;strokeWidth=1;fontSize=16;align=center;fillColor=#f5f5f5;strokeColor=#666666;" parent="1" vertex="1">
          <mxGeometry x="-936.75" y="3335" width="125" height="50" as="geometry" />
        </mxCell>
        <mxCell id="WFwcToHxhKapd6b1TXgg-63" value="" style="endArrow=none;html=1;rounded=0;entryX=0.5;entryY=1;entryDx=0;entryDy=0;exitX=0.5;exitY=0;exitDx=0;exitDy=0;" parent="1" source="WFwcToHxhKapd6b1TXgg-48" target="WFwcToHxhKapd6b1TXgg-40" edge="1">
          <mxGeometry width="50" height="50" relative="1" as="geometry">
            <mxPoint x="-799.75" y="3050" as="sourcePoint" />
            <mxPoint x="-749.75" y="3000" as="targetPoint" />
          </mxGeometry>
        </mxCell>
        <mxCell id="WFwcToHxhKapd6b1TXgg-64" value="" style="endArrow=none;html=1;rounded=0;entryX=0.5;entryY=1;entryDx=0;entryDy=0;exitX=0.5;exitY=0;exitDx=0;exitDy=0;" parent="1" source="WFwcToHxhKapd6b1TXgg-47" target="WFwcToHxhKapd6b1TXgg-48" edge="1">
          <mxGeometry width="50" height="50" relative="1" as="geometry">
            <mxPoint x="-863.75" y="2945" as="sourcePoint" />
            <mxPoint x="-863.75" y="2915" as="targetPoint" />
          </mxGeometry>
        </mxCell>
        <mxCell id="WFwcToHxhKapd6b1TXgg-65" value="" style="endArrow=none;html=1;rounded=0;entryX=0.5;entryY=1;entryDx=0;entryDy=0;exitX=0.5;exitY=0;exitDx=0;exitDy=0;" parent="1" source="WFwcToHxhKapd6b1TXgg-56" target="WFwcToHxhKapd6b1TXgg-47" edge="1">
          <mxGeometry width="50" height="50" relative="1" as="geometry">
            <mxPoint x="-853.75" y="2955" as="sourcePoint" />
            <mxPoint x="-853.75" y="2925" as="targetPoint" />
          </mxGeometry>
        </mxCell>
        <mxCell id="WFwcToHxhKapd6b1TXgg-66" value="" style="endArrow=none;html=1;rounded=0;entryX=0.5;entryY=1;entryDx=0;entryDy=0;exitX=0.5;exitY=0;exitDx=0;exitDy=0;" parent="1" source="WFwcToHxhKapd6b1TXgg-55" target="WFwcToHxhKapd6b1TXgg-56" edge="1">
          <mxGeometry width="50" height="50" relative="1" as="geometry">
            <mxPoint x="-843.75" y="2965" as="sourcePoint" />
            <mxPoint x="-843.75" y="2935" as="targetPoint" />
          </mxGeometry>
        </mxCell>
        <mxCell id="WFwcToHxhKapd6b1TXgg-67" value="" style="endArrow=none;html=1;rounded=0;entryX=0.5;entryY=1;entryDx=0;entryDy=0;exitX=0.5;exitY=0;exitDx=0;exitDy=0;" parent="1" source="WFwcToHxhKapd6b1TXgg-62" target="WFwcToHxhKapd6b1TXgg-55" edge="1">
          <mxGeometry width="50" height="50" relative="1" as="geometry">
            <mxPoint x="-833.75" y="2975" as="sourcePoint" />
            <mxPoint x="-833.75" y="2945" as="targetPoint" />
          </mxGeometry>
        </mxCell>
        <mxCell id="WFwcToHxhKapd6b1TXgg-68" value="" style="endArrow=none;html=1;rounded=0;entryX=0.5;entryY=1;entryDx=0;entryDy=0;exitX=0.5;exitY=0;exitDx=0;exitDy=0;" parent="1" source="WFwcToHxhKapd6b1TXgg-43" target="WFwcToHxhKapd6b1TXgg-38" edge="1">
          <mxGeometry width="50" height="50" relative="1" as="geometry">
            <mxPoint x="-823.75" y="2985" as="sourcePoint" />
            <mxPoint x="-823.75" y="2955" as="targetPoint" />
          </mxGeometry>
        </mxCell>
        <mxCell id="WFwcToHxhKapd6b1TXgg-69" value="" style="endArrow=none;html=1;rounded=0;entryX=0.5;entryY=1;entryDx=0;entryDy=0;exitX=0.5;exitY=0;exitDx=0;exitDy=0;" parent="1" source="WFwcToHxhKapd6b1TXgg-44" target="WFwcToHxhKapd6b1TXgg-43" edge="1">
          <mxGeometry width="50" height="50" relative="1" as="geometry">
            <mxPoint x="-813.75" y="2995" as="sourcePoint" />
            <mxPoint x="-813.75" y="2965" as="targetPoint" />
          </mxGeometry>
        </mxCell>
        <mxCell id="WFwcToHxhKapd6b1TXgg-70" value="" style="endArrow=none;html=1;rounded=0;entryX=0.5;entryY=1;entryDx=0;entryDy=0;exitX=0.5;exitY=0;exitDx=0;exitDy=0;" parent="1" source="WFwcToHxhKapd6b1TXgg-45" target="WFwcToHxhKapd6b1TXgg-39" edge="1">
          <mxGeometry width="50" height="50" relative="1" as="geometry">
            <mxPoint x="-803.75" y="3005" as="sourcePoint" />
            <mxPoint x="-803.75" y="2975" as="targetPoint" />
          </mxGeometry>
        </mxCell>
        <mxCell id="WFwcToHxhKapd6b1TXgg-71" value="" style="endArrow=none;html=1;rounded=0;entryX=0.5;entryY=1;entryDx=0;entryDy=0;exitX=0.5;exitY=0;exitDx=0;exitDy=0;" parent="1" source="WFwcToHxhKapd6b1TXgg-46" target="WFwcToHxhKapd6b1TXgg-45" edge="1">
          <mxGeometry width="50" height="50" relative="1" as="geometry">
            <mxPoint x="-226.75" y="2935" as="sourcePoint" />
            <mxPoint x="-226.75" y="2905" as="targetPoint" />
          </mxGeometry>
        </mxCell>
        <mxCell id="WFwcToHxhKapd6b1TXgg-72" value="" style="endArrow=none;html=1;rounded=0;entryX=0.5;entryY=1;entryDx=0;entryDy=0;exitX=0.5;exitY=0;exitDx=0;exitDy=0;" parent="1" source="WFwcToHxhKapd6b1TXgg-53" target="WFwcToHxhKapd6b1TXgg-46" edge="1">
          <mxGeometry width="50" height="50" relative="1" as="geometry">
            <mxPoint x="-216.75" y="2945" as="sourcePoint" />
            <mxPoint x="-216.75" y="2915" as="targetPoint" />
          </mxGeometry>
        </mxCell>
        <mxCell id="WFwcToHxhKapd6b1TXgg-73" value="" style="endArrow=none;html=1;rounded=0;entryX=0.5;entryY=1;entryDx=0;entryDy=0;exitX=0.5;exitY=0;exitDx=0;exitDy=0;" parent="1" source="WFwcToHxhKapd6b1TXgg-54" target="WFwcToHxhKapd6b1TXgg-53" edge="1">
          <mxGeometry width="50" height="50" relative="1" as="geometry">
            <mxPoint x="-206.75" y="2955" as="sourcePoint" />
            <mxPoint x="-206.75" y="2925" as="targetPoint" />
          </mxGeometry>
        </mxCell>
        <mxCell id="WFwcToHxhKapd6b1TXgg-74" value="" style="endArrow=none;html=1;rounded=0;entryX=0.5;entryY=1;entryDx=0;entryDy=0;exitX=0.5;exitY=0;exitDx=0;exitDy=0;" parent="1" source="WFwcToHxhKapd6b1TXgg-49" target="WFwcToHxhKapd6b1TXgg-41" edge="1">
          <mxGeometry width="50" height="50" relative="1" as="geometry">
            <mxPoint x="-178.75" y="2975" as="sourcePoint" />
            <mxPoint x="-178.75" y="2945" as="targetPoint" />
          </mxGeometry>
        </mxCell>
        <mxCell id="WFwcToHxhKapd6b1TXgg-75" value="" style="endArrow=none;html=1;rounded=0;entryX=0.5;entryY=1;entryDx=0;entryDy=0;exitX=0.5;exitY=0;exitDx=0;exitDy=0;" parent="1" source="WFwcToHxhKapd6b1TXgg-50" target="WFwcToHxhKapd6b1TXgg-49" edge="1">
          <mxGeometry width="50" height="50" relative="1" as="geometry">
            <mxPoint x="-168.75" y="2985" as="sourcePoint" />
            <mxPoint x="-168.75" y="2955" as="targetPoint" />
          </mxGeometry>
        </mxCell>
        <mxCell id="WFwcToHxhKapd6b1TXgg-76" value="" style="endArrow=none;html=1;rounded=0;entryX=0.5;entryY=1;entryDx=0;entryDy=0;exitX=0.5;exitY=0;exitDx=0;exitDy=0;" parent="1" source="WFwcToHxhKapd6b1TXgg-51" target="WFwcToHxhKapd6b1TXgg-42" edge="1">
          <mxGeometry width="50" height="50" relative="1" as="geometry">
            <mxPoint x="113.25" y="2945" as="sourcePoint" />
            <mxPoint x="113.25" y="2915" as="targetPoint" />
          </mxGeometry>
        </mxCell>
        <mxCell id="WFwcToHxhKapd6b1TXgg-77" value="" style="endArrow=none;html=1;rounded=0;entryX=0.5;entryY=1;entryDx=0;entryDy=0;exitX=0.5;exitY=0;exitDx=0;exitDy=0;" parent="1" source="WFwcToHxhKapd6b1TXgg-52" target="WFwcToHxhKapd6b1TXgg-51" edge="1">
          <mxGeometry width="50" height="50" relative="1" as="geometry">
            <mxPoint x="123.25" y="2955" as="sourcePoint" />
            <mxPoint x="123.25" y="2925" as="targetPoint" />
          </mxGeometry>
        </mxCell>
        <mxCell id="WFwcToHxhKapd6b1TXgg-78" value="" style="edgeStyle=elbowEdgeStyle;elbow=vertical;endArrow=classic;html=1;curved=0;rounded=0;endSize=8;startSize=8;exitX=0.75;exitY=1;exitDx=0;exitDy=0;entryX=1;entryY=0.5;entryDx=0;entryDy=0;" parent="1" source="WFwcToHxhKapd6b1TXgg-129" target="WFwcToHxhKapd6b1TXgg-37" edge="1">
          <mxGeometry width="50" height="50" relative="1" as="geometry">
            <mxPoint x="15.25" y="2829.999999999999" as="sourcePoint" />
            <mxPoint x="105.25" y="2765" as="targetPoint" />
            <Array as="points">
              <mxPoint x="675.25" y="2800" />
            </Array>
          </mxGeometry>
        </mxCell>
        <mxCell id="WFwcToHxhKapd6b1TXgg-79" value="" style="endArrow=none;dashed=1;html=1;dashPattern=1 3;strokeWidth=3;rounded=0;" parent="1" edge="1">
          <mxGeometry width="50" height="50" relative="1" as="geometry">
            <mxPoint x="-424.75" y="2735" as="sourcePoint" />
            <mxPoint x="-424.75" y="2075" as="targetPoint" />
          </mxGeometry>
        </mxCell>
        <mxCell id="WFwcToHxhKapd6b1TXgg-80" value="" style="endArrow=none;dashed=1;html=1;dashPattern=1 3;strokeWidth=3;rounded=0;" parent="1" edge="1">
          <mxGeometry width="50" height="50" relative="1" as="geometry">
            <mxPoint x="-74.75" y="2735" as="sourcePoint" />
            <mxPoint x="-74.46000000000004" y="2075" as="targetPoint" />
          </mxGeometry>
        </mxCell>
        <mxCell id="WFwcToHxhKapd6b1TXgg-81" value="" style="endArrow=none;dashed=1;html=1;dashPattern=1 3;strokeWidth=3;rounded=0;" parent="1" edge="1">
          <mxGeometry width="50" height="50" relative="1" as="geometry">
            <mxPoint x="-1054.75" y="2749" as="sourcePoint" />
            <mxPoint x="1845.25" y="2745" as="targetPoint" />
          </mxGeometry>
        </mxCell>
        <mxCell id="WFwcToHxhKapd6b1TXgg-82" value="" style="endArrow=none;dashed=1;html=1;dashPattern=1 3;strokeWidth=3;rounded=0;" parent="1" edge="1">
          <mxGeometry width="50" height="50" relative="1" as="geometry">
            <mxPoint x="-713.75" y="3410" as="sourcePoint" />
            <mxPoint x="-713.75" y="2750" as="targetPoint" />
          </mxGeometry>
        </mxCell>
        <mxCell id="WFwcToHxhKapd6b1TXgg-83" value="" style="endArrow=none;dashed=1;html=1;dashPattern=1 3;strokeWidth=3;rounded=0;" parent="1" edge="1">
          <mxGeometry width="50" height="50" relative="1" as="geometry">
            <mxPoint x="-394.75" y="3410" as="sourcePoint" />
            <mxPoint x="-394.75" y="2750" as="targetPoint" />
          </mxGeometry>
        </mxCell>
        <mxCell id="WFwcToHxhKapd6b1TXgg-84" value="" style="endArrow=none;dashed=1;html=1;dashPattern=1 3;strokeWidth=3;rounded=0;" parent="1" edge="1">
          <mxGeometry width="50" height="50" relative="1" as="geometry">
            <mxPoint x="-76.71000000000004" y="3410" as="sourcePoint" />
            <mxPoint x="-76.71000000000004" y="2750" as="targetPoint" />
          </mxGeometry>
        </mxCell>
        <mxCell id="WFwcToHxhKapd6b1TXgg-85" value="" style="endArrow=none;dashed=1;html=1;dashPattern=1 3;strokeWidth=3;rounded=0;" parent="1" edge="1">
          <mxGeometry width="50" height="50" relative="1" as="geometry">
            <mxPoint x="245.25" y="3410" as="sourcePoint" />
            <mxPoint x="245.25" y="2750" as="targetPoint" />
          </mxGeometry>
        </mxCell>
        <mxCell id="WFwcToHxhKapd6b1TXgg-86" value="&lt;b&gt;Zigbee Hub&lt;/b&gt;" style="whiteSpace=wrap;html=1;rounded=1;shadow=1;strokeWidth=1;fontSize=16;align=center;fillColor=#f5f5f5;strokeColor=#666666;" parent="1" vertex="1">
          <mxGeometry x="1272.25" y="1965" width="180" height="40" as="geometry" />
        </mxCell>
        <mxCell id="WFwcToHxhKapd6b1TXgg-87" value="서버 통신" style="whiteSpace=wrap;html=1;rounded=1;shadow=1;strokeWidth=1;fontSize=16;align=center;fillColor=#f5f5f5;strokeColor=#666666;" parent="1" vertex="1">
          <mxGeometry x="907.25" y="2050" width="275" height="40" as="geometry" />
        </mxCell>
        <mxCell id="WFwcToHxhKapd6b1TXgg-88" value="기기 관리" style="whiteSpace=wrap;html=1;rounded=1;shadow=1;strokeWidth=1;fontSize=16;align=center;fillColor=#f5f5f5;strokeColor=#666666;" parent="1" vertex="1">
          <mxGeometry x="1222.25" y="2050" width="275" height="40" as="geometry" />
        </mxCell>
        <mxCell id="WFwcToHxhKapd6b1TXgg-89" value="zigbee 통신 프로토콜" style="whiteSpace=wrap;html=1;rounded=1;shadow=1;strokeWidth=1;fontSize=16;align=center;fillColor=#f5f5f5;strokeColor=#666666;" parent="1" vertex="1">
          <mxGeometry x="585.25" y="2050" width="275" height="40" as="geometry" />
        </mxCell>
        <mxCell id="WFwcToHxhKapd6b1TXgg-90" value="사용자 웹 앱 통신" style="whiteSpace=wrap;html=1;rounded=1;shadow=1;strokeWidth=1;fontSize=16;align=center;fillColor=#f5f5f5;strokeColor=#666666;" parent="1" vertex="1">
          <mxGeometry x="1542.25" y="2050" width="275" height="40" as="geometry" />
        </mxCell>
        <mxCell id="WFwcToHxhKapd6b1TXgg-91" value="기기 등록" style="whiteSpace=wrap;html=1;rounded=1;shadow=1;strokeWidth=1;fontSize=16;align=center;fillColor=#f5f5f5;strokeColor=#666666;" parent="1" vertex="1">
          <mxGeometry x="1297.25" y="2135" width="125" height="45" as="geometry" />
        </mxCell>
        <mxCell id="WFwcToHxhKapd6b1TXgg-92" value="네트워크 등록" style="whiteSpace=wrap;html=1;rounded=1;shadow=1;strokeWidth=1;fontSize=16;align=center;fillColor=#f5f5f5;strokeColor=#666666;" parent="1" vertex="1">
          <mxGeometry x="660.25" y="2225" width="125" height="50" as="geometry" />
        </mxCell>
        <mxCell id="WFwcToHxhKapd6b1TXgg-93" value="기기 검색" style="whiteSpace=wrap;html=1;rounded=1;shadow=1;strokeWidth=1;fontSize=16;align=center;fillColor=#f5f5f5;strokeColor=#666666;" parent="1" vertex="1">
          <mxGeometry x="660.25" y="2135" width="125" height="45" as="geometry" />
        </mxCell>
        <mxCell id="WFwcToHxhKapd6b1TXgg-94" value="연결 제어" style="whiteSpace=wrap;html=1;rounded=1;shadow=1;strokeWidth=1;fontSize=16;align=center;fillColor=#f5f5f5;strokeColor=#666666;" parent="1" vertex="1">
          <mxGeometry x="1609.25" y="2135" width="141" height="45" as="geometry" />
        </mxCell>
        <mxCell id="WFwcToHxhKapd6b1TXgg-95" value="알림 제공" style="whiteSpace=wrap;html=1;rounded=1;shadow=1;strokeWidth=1;fontSize=16;align=center;fillColor=#f5f5f5;strokeColor=#666666;" parent="1" vertex="1">
          <mxGeometry x="1617.25" y="2325" width="125" height="50" as="geometry" />
        </mxCell>
        <mxCell id="WFwcToHxhKapd6b1TXgg-96" value="기기 삭제" style="whiteSpace=wrap;html=1;rounded=1;shadow=1;strokeWidth=1;fontSize=16;align=center;fillColor=#f5f5f5;strokeColor=#666666;" parent="1" vertex="1">
          <mxGeometry x="1296.75" y="2225" width="125" height="50" as="geometry" />
        </mxCell>
        <mxCell id="WFwcToHxhKapd6b1TXgg-97" style="edgeStyle=orthogonalEdgeStyle;html=1;startSize=6;endFill=0;endSize=6;strokeWidth=1;fontSize=16;rounded=0;endArrow=none;" parent="1" source="WFwcToHxhKapd6b1TXgg-86" target="WFwcToHxhKapd6b1TXgg-87" edge="1">
          <mxGeometry relative="1" as="geometry">
            <Array as="points">
              <mxPoint x="1361.25" y="2020" />
              <mxPoint x="1045.25" y="2020" />
            </Array>
          </mxGeometry>
        </mxCell>
        <mxCell id="WFwcToHxhKapd6b1TXgg-98" style="edgeStyle=elbowEdgeStyle;html=1;startSize=6;endFill=0;endSize=6;strokeWidth=1;fontSize=16;rounded=0;endArrow=none;" parent="1" source="WFwcToHxhKapd6b1TXgg-86" target="WFwcToHxhKapd6b1TXgg-88" edge="1">
          <mxGeometry relative="1" as="geometry">
            <Array as="points">
              <mxPoint x="1360.25" y="2025" />
            </Array>
          </mxGeometry>
        </mxCell>
        <mxCell id="WFwcToHxhKapd6b1TXgg-99" style="edgeStyle=orthogonalEdgeStyle;html=1;startSize=6;endFill=0;endSize=6;strokeWidth=1;fontSize=16;rounded=0;endArrow=none;exitX=0.5;exitY=1;" parent="1" source="WFwcToHxhKapd6b1TXgg-86" target="WFwcToHxhKapd6b1TXgg-89" edge="1">
          <mxGeometry relative="1" as="geometry">
            <Array as="points">
              <mxPoint x="1360.25" y="2020" />
              <mxPoint x="723.25" y="2020" />
            </Array>
          </mxGeometry>
        </mxCell>
        <mxCell id="WFwcToHxhKapd6b1TXgg-100" style="edgeStyle=orthogonalEdgeStyle;html=1;startSize=6;endFill=0;endSize=6;strokeWidth=1;fontSize=16;rounded=0;endArrow=none;" parent="1" source="WFwcToHxhKapd6b1TXgg-86" target="WFwcToHxhKapd6b1TXgg-90" edge="1">
          <mxGeometry relative="1" as="geometry">
            <Array as="points">
              <mxPoint x="1360.25" y="2020" />
              <mxPoint x="1680.25" y="2020" />
            </Array>
          </mxGeometry>
        </mxCell>
        <mxCell id="WFwcToHxhKapd6b1TXgg-101" value="" style="endArrow=none;html=1;rounded=0;entryX=0.5;entryY=1;entryDx=0;entryDy=0;exitX=0.5;exitY=0;exitDx=0;exitDy=0;" parent="1" source="WFwcToHxhKapd6b1TXgg-93" target="WFwcToHxhKapd6b1TXgg-89" edge="1">
          <mxGeometry width="50" height="50" relative="1" as="geometry">
            <mxPoint x="797.25" y="2235" as="sourcePoint" />
            <mxPoint x="847.25" y="2185" as="targetPoint" />
          </mxGeometry>
        </mxCell>
        <mxCell id="WFwcToHxhKapd6b1TXgg-102" value="" style="endArrow=none;html=1;rounded=0;entryX=0.5;entryY=1;entryDx=0;entryDy=0;exitX=0.5;exitY=0;exitDx=0;exitDy=0;" parent="1" source="WFwcToHxhKapd6b1TXgg-92" target="WFwcToHxhKapd6b1TXgg-93" edge="1">
          <mxGeometry width="50" height="50" relative="1" as="geometry">
            <mxPoint x="733.25" y="2130" as="sourcePoint" />
            <mxPoint x="733.25" y="2100" as="targetPoint" />
          </mxGeometry>
        </mxCell>
        <mxCell id="WFwcToHxhKapd6b1TXgg-103" value="" style="endArrow=none;html=1;rounded=0;entryX=0.5;entryY=1;entryDx=0;entryDy=0;exitX=0.5;exitY=0;exitDx=0;exitDy=0;" parent="1" source="WFwcToHxhKapd6b1TXgg-108" target="WFwcToHxhKapd6b1TXgg-87" edge="1">
          <mxGeometry width="50" height="50" relative="1" as="geometry">
            <mxPoint x="1044.75" y="2135" as="sourcePoint" />
            <mxPoint x="773.25" y="2140" as="targetPoint" />
          </mxGeometry>
        </mxCell>
        <mxCell id="WFwcToHxhKapd6b1TXgg-104" value="" style="endArrow=none;html=1;rounded=0;entryX=0.5;entryY=1;entryDx=0;entryDy=0;exitX=0.5;exitY=0;exitDx=0;exitDy=0;" parent="1" source="WFwcToHxhKapd6b1TXgg-91" target="WFwcToHxhKapd6b1TXgg-88" edge="1">
          <mxGeometry width="50" height="50" relative="1" as="geometry">
            <mxPoint x="793.25" y="2190" as="sourcePoint" />
            <mxPoint x="793.25" y="2160" as="targetPoint" />
          </mxGeometry>
        </mxCell>
        <mxCell id="WFwcToHxhKapd6b1TXgg-105" value="" style="endArrow=none;html=1;rounded=0;entryX=0.5;entryY=1;entryDx=0;entryDy=0;exitX=0.5;exitY=0;exitDx=0;exitDy=0;" parent="1" source="WFwcToHxhKapd6b1TXgg-96" target="WFwcToHxhKapd6b1TXgg-91" edge="1">
          <mxGeometry width="50" height="50" relative="1" as="geometry">
            <mxPoint x="1359.75" y="2225" as="sourcePoint" />
            <mxPoint x="1370.25" y="2090" as="targetPoint" />
          </mxGeometry>
        </mxCell>
        <mxCell id="WFwcToHxhKapd6b1TXgg-106" value="" style="endArrow=none;html=1;rounded=0;entryX=0.5;entryY=1;entryDx=0;entryDy=0;exitX=0.5;exitY=0;exitDx=0;exitDy=0;" parent="1" source="WFwcToHxhKapd6b1TXgg-94" target="WFwcToHxhKapd6b1TXgg-90" edge="1">
          <mxGeometry width="50" height="50" relative="1" as="geometry">
            <mxPoint x="1418.25" y="2160" as="sourcePoint" />
            <mxPoint x="1418.25" y="2130" as="targetPoint" />
          </mxGeometry>
        </mxCell>
        <mxCell id="WFwcToHxhKapd6b1TXgg-107" value="" style="endArrow=none;html=1;rounded=0;entryX=0.5;entryY=1;entryDx=0;entryDy=0;exitX=0.5;exitY=0;exitDx=0;exitDy=0;" parent="1" source="WFwcToHxhKapd6b1TXgg-120" target="WFwcToHxhKapd6b1TXgg-94" edge="1">
          <mxGeometry width="50" height="50" relative="1" as="geometry">
            <mxPoint x="1788.25" y="2185" as="sourcePoint" />
            <mxPoint x="1428.25" y="2140" as="targetPoint" />
          </mxGeometry>
        </mxCell>
        <mxCell id="WFwcToHxhKapd6b1TXgg-108" value="MQTT 브로커 연결" style="whiteSpace=wrap;html=1;rounded=1;shadow=1;strokeWidth=1;fontSize=16;align=center;fillColor=#f5f5f5;strokeColor=#666666;" parent="1" vertex="1">
          <mxGeometry x="974.1199999999999" y="2135" width="141.25" height="45" as="geometry" />
        </mxCell>
        <mxCell id="WFwcToHxhKapd6b1TXgg-109" value="기기 정보 전달" style="whiteSpace=wrap;html=1;rounded=1;shadow=1;strokeWidth=1;fontSize=16;align=center;fillColor=#f5f5f5;strokeColor=#666666;" parent="1" vertex="1">
          <mxGeometry x="981.8699999999999" y="2225" width="125" height="50" as="geometry" />
        </mxCell>
        <mxCell id="WFwcToHxhKapd6b1TXgg-110" value="실시간 상태 및 구성 업데이트" style="whiteSpace=wrap;html=1;rounded=1;shadow=1;strokeWidth=1;fontSize=16;align=center;fillColor=#f5f5f5;strokeColor=#666666;" parent="1" vertex="1">
          <mxGeometry x="938.1199999999999" y="2325" width="213.25" height="50" as="geometry" />
        </mxCell>
        <mxCell id="WFwcToHxhKapd6b1TXgg-111" value="상태 변경 및 장애 제어" style="whiteSpace=wrap;html=1;rounded=1;shadow=1;strokeWidth=1;fontSize=16;align=center;fillColor=#f5f5f5;strokeColor=#666666;" parent="1" vertex="1">
          <mxGeometry x="962.8699999999999" y="2425" width="164.38" height="50" as="geometry" />
        </mxCell>
        <mxCell id="WFwcToHxhKapd6b1TXgg-112" value="" style="endArrow=none;html=1;rounded=0;entryX=0.5;entryY=1;entryDx=0;entryDy=0;exitX=0.5;exitY=0;exitDx=0;exitDy=0;" parent="1" source="WFwcToHxhKapd6b1TXgg-109" target="WFwcToHxhKapd6b1TXgg-108" edge="1">
          <mxGeometry width="50" height="50" relative="1" as="geometry">
            <mxPoint x="1054.87" y="2120" as="sourcePoint" />
            <mxPoint x="1054.87" y="2090" as="targetPoint" />
          </mxGeometry>
        </mxCell>
        <mxCell id="WFwcToHxhKapd6b1TXgg-113" value="" style="endArrow=none;html=1;rounded=0;entryX=0.5;entryY=1;entryDx=0;entryDy=0;exitX=0.5;exitY=0;exitDx=0;exitDy=0;" parent="1" source="WFwcToHxhKapd6b1TXgg-110" target="WFwcToHxhKapd6b1TXgg-109" edge="1">
          <mxGeometry width="50" height="50" relative="1" as="geometry">
            <mxPoint x="1054.12" y="2235" as="sourcePoint" />
            <mxPoint x="1055.12" y="2190" as="targetPoint" />
          </mxGeometry>
        </mxCell>
        <mxCell id="WFwcToHxhKapd6b1TXgg-114" value="" style="endArrow=none;html=1;rounded=0;entryX=0.5;entryY=1;entryDx=0;entryDy=0;exitX=0.5;exitY=0;exitDx=0;exitDy=0;" parent="1" source="WFwcToHxhKapd6b1TXgg-111" target="WFwcToHxhKapd6b1TXgg-110" edge="1">
          <mxGeometry width="50" height="50" relative="1" as="geometry">
            <mxPoint x="1055.12" y="2335" as="sourcePoint" />
            <mxPoint x="1054.12" y="2285" as="targetPoint" />
          </mxGeometry>
        </mxCell>
        <mxCell id="WFwcToHxhKapd6b1TXgg-115" value="알림 제공" style="whiteSpace=wrap;html=1;rounded=1;shadow=1;strokeWidth=1;fontSize=16;align=center;fillColor=#f5f5f5;strokeColor=#666666;" parent="1" vertex="1">
          <mxGeometry x="973.6199999999999" y="2525" width="141.25" height="50" as="geometry" />
        </mxCell>
        <mxCell id="WFwcToHxhKapd6b1TXgg-116" value="연결 제어" style="whiteSpace=wrap;html=1;rounded=1;shadow=1;strokeWidth=1;fontSize=16;align=center;fillColor=#f5f5f5;strokeColor=#666666;" parent="1" vertex="1">
          <mxGeometry x="973.75" y="2625" width="141.25" height="50" as="geometry" />
        </mxCell>
        <mxCell id="WFwcToHxhKapd6b1TXgg-117" value="" style="endArrow=none;html=1;rounded=0;entryX=0.5;entryY=1;entryDx=0;entryDy=0;exitX=0.5;exitY=0;exitDx=0;exitDy=0;" parent="1" source="WFwcToHxhKapd6b1TXgg-115" target="WFwcToHxhKapd6b1TXgg-111" edge="1">
          <mxGeometry width="50" height="50" relative="1" as="geometry">
            <mxPoint x="1054.12" y="2435" as="sourcePoint" />
            <mxPoint x="1055.12" y="2385" as="targetPoint" />
          </mxGeometry>
        </mxCell>
        <mxCell id="WFwcToHxhKapd6b1TXgg-118" value="" style="endArrow=none;html=1;rounded=0;entryX=0.5;entryY=1;entryDx=0;entryDy=0;exitX=0.5;exitY=0;exitDx=0;exitDy=0;" parent="1" source="WFwcToHxhKapd6b1TXgg-116" target="WFwcToHxhKapd6b1TXgg-115" edge="1">
          <mxGeometry width="50" height="50" relative="1" as="geometry">
            <mxPoint x="1064.12" y="2445" as="sourcePoint" />
            <mxPoint x="1065.12" y="2395" as="targetPoint" />
          </mxGeometry>
        </mxCell>
        <mxCell id="WFwcToHxhKapd6b1TXgg-119" value="상태 변경 제어" style="whiteSpace=wrap;html=1;rounded=1;shadow=1;strokeWidth=1;fontSize=16;align=center;fillColor=#f5f5f5;strokeColor=#666666;" parent="1" vertex="1">
          <mxGeometry x="1617.25" y="2425" width="125" height="50" as="geometry" />
        </mxCell>
        <mxCell id="WFwcToHxhKapd6b1TXgg-120" value="권한 인증" style="whiteSpace=wrap;html=1;rounded=1;shadow=1;strokeWidth=1;fontSize=16;align=center;fillColor=#f5f5f5;strokeColor=#666666;" parent="1" vertex="1">
          <mxGeometry x="1617.25" y="2225" width="125" height="50" as="geometry" />
        </mxCell>
        <mxCell id="WFwcToHxhKapd6b1TXgg-121" value="" style="endArrow=none;html=1;rounded=0;entryX=0.5;entryY=1;entryDx=0;entryDy=0;exitX=0.5;exitY=0;exitDx=0;exitDy=0;" parent="1" source="WFwcToHxhKapd6b1TXgg-95" target="WFwcToHxhKapd6b1TXgg-120" edge="1">
          <mxGeometry width="50" height="50" relative="1" as="geometry">
            <mxPoint x="1690.25" y="2235" as="sourcePoint" />
            <mxPoint x="1690.25" y="2190" as="targetPoint" />
          </mxGeometry>
        </mxCell>
        <mxCell id="WFwcToHxhKapd6b1TXgg-122" value="" style="endArrow=none;html=1;rounded=0;entryX=0.5;entryY=1;entryDx=0;entryDy=0;exitX=0.5;exitY=0;exitDx=0;exitDy=0;" parent="1" source="WFwcToHxhKapd6b1TXgg-119" target="WFwcToHxhKapd6b1TXgg-95" edge="1">
          <mxGeometry width="50" height="50" relative="1" as="geometry">
            <mxPoint x="1700.25" y="2245" as="sourcePoint" />
            <mxPoint x="1700.25" y="2200" as="targetPoint" />
          </mxGeometry>
        </mxCell>
        <mxCell id="WFwcToHxhKapd6b1TXgg-123" value="연동 관리" style="whiteSpace=wrap;html=1;rounded=1;shadow=1;strokeWidth=1;fontSize=16;align=center;fillColor=#f5f5f5;strokeColor=#666666;" parent="1" vertex="1">
          <mxGeometry x="1609.25" y="2525" width="141.25" height="50" as="geometry" />
        </mxCell>
        <mxCell id="WFwcToHxhKapd6b1TXgg-124" value="" style="endArrow=none;html=1;rounded=0;entryX=0.5;entryY=1;entryDx=0;entryDy=0;exitX=0.5;exitY=0;exitDx=0;exitDy=0;" parent="1" source="WFwcToHxhKapd6b1TXgg-123" target="WFwcToHxhKapd6b1TXgg-119" edge="1">
          <mxGeometry width="50" height="50" relative="1" as="geometry">
            <mxPoint x="1690.25" y="2435" as="sourcePoint" />
            <mxPoint x="1690.25" y="2385" as="targetPoint" />
          </mxGeometry>
        </mxCell>
        <mxCell id="WFwcToHxhKapd6b1TXgg-125" value="" style="endArrow=none;dashed=1;html=1;dashPattern=1 3;strokeWidth=3;rounded=0;" parent="1" edge="1">
          <mxGeometry width="50" height="50" relative="1" as="geometry">
            <mxPoint x="885.25" y="2735" as="sourcePoint" />
            <mxPoint x="884.25" y="1965" as="targetPoint" />
          </mxGeometry>
        </mxCell>
        <mxCell id="WFwcToHxhKapd6b1TXgg-126" value="" style="endArrow=none;dashed=1;html=1;dashPattern=1 3;strokeWidth=3;rounded=0;" parent="1" edge="1">
          <mxGeometry width="50" height="50" relative="1" as="geometry">
            <mxPoint x="1206.25" y="2735" as="sourcePoint" />
            <mxPoint x="1205.25" y="1965" as="targetPoint" />
          </mxGeometry>
        </mxCell>
        <mxCell id="WFwcToHxhKapd6b1TXgg-127" value="" style="endArrow=none;dashed=1;html=1;dashPattern=1 3;strokeWidth=3;rounded=0;" parent="1" edge="1">
          <mxGeometry width="50" height="50" relative="1" as="geometry">
            <mxPoint x="1522.25" y="2735" as="sourcePoint" />
            <mxPoint x="1521.25" y="1965" as="targetPoint" />
          </mxGeometry>
        </mxCell>
        <mxCell id="WFwcToHxhKapd6b1TXgg-128" value="&lt;span&gt;다중 연결&lt;/span&gt;" style="whiteSpace=wrap;html=1;rounded=1;shadow=1;strokeWidth=1;fontSize=16;align=center;fillColor=#f5f5f5;strokeColor=#666666;" parent="1" vertex="1">
          <mxGeometry x="660.25" y="2325" width="125" height="50" as="geometry" />
        </mxCell>
        <mxCell id="WFwcToHxhKapd6b1TXgg-129" value="기기 제어" style="whiteSpace=wrap;html=1;rounded=1;shadow=1;strokeWidth=1;fontSize=16;align=center;fillColor=#f5f5f5;strokeColor=#666666;" parent="1" vertex="1">
          <mxGeometry x="660.25" y="2425" width="125" height="50" as="geometry" />
        </mxCell>
        <mxCell id="WFwcToHxhKapd6b1TXgg-130" value="" style="endArrow=none;html=1;rounded=0;exitX=0.5;exitY=1;exitDx=0;exitDy=0;entryX=0.5;entryY=0;entryDx=0;entryDy=0;" parent="1" source="WFwcToHxhKapd6b1TXgg-92" target="WFwcToHxhKapd6b1TXgg-128" edge="1">
          <mxGeometry width="50" height="50" relative="1" as="geometry">
            <mxPoint x="1369.25" y="2285" as="sourcePoint" />
            <mxPoint x="1369.25" y="2335" as="targetPoint" />
          </mxGeometry>
        </mxCell>
      </root>
    </mxGraphModel>
  </diagram>
</mxfile>
